<svg xmlns="http://www.w3.org/2000/svg" width="240" fill="none" viewBox="0 0 706 221">
    <path stroke="#000" stroke-width="3" d="M173.3 165.8a330 330 0 0 0 359.1.2"/>
    <path fill="#030712"
          d="M176.8 122c1.8 0 2.7.8 2.7 2.6 0 .9-.3 1.6-.8 2.2-1 1.4-2.4 2.5-4 3.2a14 14 0 0 1-4.8 1.6c-.5 0-.8-.1-.8-.4l.1-.3a8 8 0 0 0 3.3-1.1 16 16 0 0 0 5-3.8 3 3 0 0 0 .6-1.7c0-.6-.3-.8-.8-.8-.6 0-1.3.2-1.8.5-1.9 1-3.6 2.3-5 3.9a14 14 0 0 0-3.4 5.3l-.3 1.6c0 .5.3 1 .7 1.5.4.5 1.1.7 2 .7 1 0 2.2-.3 3.5-.8 3.6-1.4 6.6-3.8 8.8-7 .2-.3.3-.3.5-.1l.2.2-.1.4a18 18 0 0 1-3.9 4.4c-3 2.6-5.9 3.9-8.7 3.9-2.4 0-4.1-.8-5-2.2-.5-.6-.6-1.3-.6-2 0-.9.2-1.8.6-3 .9-1.9 2.7-3.8 5.4-5.8 2.8-2 5-3 6.6-3Zm7 3.4c0-1.6-.4-2.4-1.4-2.4a3 3 0 0 0-.6 0h-.3c0-.2 0-.4.3-.6.2-.2.9-.3 2-.4 1.4 0 2.3.2 2.7.6.3.4.5.8.5 1.2 0 .4-.3 1.4-1 3l-1 2.5c-1 3-1.4 5-1.3 5.7a116.6 116.6 0 0 1 10.2-12c2-2 3.7-3.1 5.2-3.8l1.1-.2c1.1 0 1.9.3 2.3 1l.2.5c0 .1 0 .3-.2.5 0 .2-.3.2-.5 0-.3-.3-.9-.4-1.8-.4-1.6 0-4.2 1.8-7.8 5.5a72.4 72.4 0 0 0-6 7 14.5 14.5 0 0 0-3 5.3c0 .2-.2.4-.7.4-.5 0-1-.2-1.2-.6-.2-.4-.3-.7-.3-1.1v-.8a91.1 91.1 0 0 1 2.2-8.2l-1.6 2.5c-.3.3-.5.4-.6.2-.2 0-.2-.2-.2-.3v-.3c1.2-1.5 2.1-3.1 2.8-4.8Zm25-3.5c1.7 0 2.6 1 2.6 2.7 0 .9-.2 1.6-.7 2.2-1 1.4-2.5 2.5-4 3.2a14 14 0 0 1-4.9 1.6c-.5 0-.7-.1-.7-.4v-.3h.4a16.4 16.4 0 0 0 8-4.8 3 3 0 0 0 .5-1.8c0-.6-.2-.8-.8-.8-.4 0-1 .1-1.7.5-2 1-3.6 2.3-5 3.9a14 14 0 0 0-3.4 5.3c-.2.6-.3 1-.3 1.6 0 .5.2 1 .6 1.5.5.5 1.2.7 2 .7 1 0 2.2-.3 3.5-.8 3.6-1.4 6.7-3.8 8.8-7 .2-.3.4-.3.6-.1l.2.2c0 .1 0 .3-.2.4-1 1.6-2.3 3.1-3.8 4.4-3 2.6-6 3.9-8.7 3.9-2.5 0-4.2-.8-5.1-2.2-.4-.6-.6-1.3-.6-2 0-.9.2-1.8.7-3 .8-1.9 2.6-3.8 5.4-5.8 2.7-2 5-3 6.5-3Zm11 16c-1.7 0-2.6-1-2.6-3.1 0-2 1.5-4.6 4.5-7.7l.5-.5.3-.5c.5-.7.7-1 .7-1.2l-.2-.5c-.1-.4-.7-.7-1.6-.9-1-.2-1.8-.2-2.4-.2l-5.2 7.3c-.5.6-.8.8-1 .7-.2 0-.3-.2-.3-.3l.3-.6c1.8-2.2 3.4-4.6 4.7-7.1-.4-.1-.7-.3-.9-.5-.2-.2-.2-.6 0-1 .2-.6.7-1.3 1.5-2.2 1-1 2.1-1.8 3.5-2.3h.5c.4 0 .3.5-.4 1.7l-2 3.1 4 .2h1.7c.6 0 1 0 1.3.2.2.1.3.4.2.8-.5 1-1 1.8-1.8 2.5-2 2.2-3.5 4.8-4.5 7.5a5 5 0 0 0-.4 1.7c0 1 .4 1.5 1 1.5.3 0 .8-.2 1.4-.6.7-.4 1.8-1.2 3.3-2.6 1.4-1.3 2.6-2.6 3.7-4.1.2-.2.3-.3.5-.2l.3.3-.1.3a24.7 24.7 0 0 1-6.5 6.9 6.4 6.4 0 0 1-4 1.4Zm7.9 18-1-.2c-1.8-.5-2.6-1.4-2.6-2.7 0-1.4.9-3.1 2.6-5.1 1.8-2.1 5.5-5 11.2-8.8 3.2-6.4 5.2-11 6-13.5l-2.4 3a93 93 0 0 1-3.1 4c-.9 1.1-2 2.1-3.3 3.1a6 6 0 0 1-3.5 1.5c-1 0-1.9-.3-2.5-.8-.6-.5-1-1-1-1.5-.3-1.8 0-3.5 1-5 1-2.1 2.3-4 4-5.4.7-.6 1.2-.9 1.7-.9s1 .2 1.3.5c.5.4.6.8.4 1.2-1.2.7-2.7 2.1-4.3 4.3-1 1.2-1.6 2.7-1.9 4.3v.9c0 .3.1.6.4.8.3.2.6.4.9.4 1 0 2.1-.6 3.3-1.7a49.7 49.7 0 0 0 6.8-8l2.6-3.3c.4-.5.9-.8 1.3-.8.6 0 1.1.1 1.7.5.5.3.8.5.7.7a339.6 339.6 0 0 0-6.1 13.5 36 36 0 0 0 9-8c.3-.5.5-.5.7-.2v.4c0 .1 0 .3-.3.6a41.6 41.6 0 0 1-10.4 9.4 140 140 0 0 1-5.8 11.1c-2.5 3.7-5 5.6-7.4 5.6Zm9.2-14.9c-4 3-6.9 5.5-8.6 7.2-1.7 1.8-2.6 3.3-2.6 4.5 0 1.3.4 2 1.3 2 .7 0 1.5-.4 2.3-1.1a13 13 0 0 0 2.5-2.8 29 29 0 0 0 3.6-6.5l1.5-3.2Zm15.3-13.6a29.5 29.5 0 0 1 8.5-5.2l2.8-.3c.9 0 1.8.3 2.6.9 4.6-10.7 9-16 13.2-16 1.4 0 2.3.4 2.8 1.2.3.4.4.7.4 1a7 7 0 0 1-1 3.2c-1 1.6-2.1 3-3.4 4.3-2 2-4.3 4-6.5 5.7a281 281 0 0 0-4.7 3.8 49.9 49.9 0 0 0-3.4 12.4c0 1.2.1 2 .6 2.7.1.5.4.7.9.8.4.1.7 0 1-.1l.6-.5.6-.4h.5v.5l-.8.9c-.6.3-1.2.5-2 .5h-1.3c-1.7-.3-2.5-1.5-2.5-3.6 0-2 .3-3.8.8-5.6l2-5.8c-5.3 6.2-9.1 9.4-11.4 9.4a4 4 0 0 1-1.7-.5c-.7-.3-1.2-.8-1.6-1.4-.4-.5-.7-1.2-.7-1.9 0-.6.2-1.3.5-1.9.8-1.6 1.9-3 3.2-4Zm12.8-2 .7-1.8c-.4-.2-1.1-.3-2.1-.3s-2.4.4-4 1.2c-1.6.9-3 2-4.5 3.1a19.9 19.9 0 0 0-3 3.8c-1 1.4-1.4 2.4-1.4 3 0 1.3.4 2 1 2 .8 0 1.8-.7 3.3-1.8 3.7-3 7-6.2 10-9.3Zm15.4-14.5c.5-.8.7-1.5.7-2 0-.6-.3-.9-.8-.9-.4 0-1 .3-1.9 1-3.7 2.8-7 7.5-10 14.1a44 44 0 0 0 12-12.2Zm-9 26.3a4 4 0 0 1-1.7-.5c-.7-.3-1.2-.8-1.6-1.4a3 3 0 0 1-.7-1.9c0-.6.2-1.3.5-1.9.8-1.6 1.9-3 3.2-4a29.5 29.5 0 0 1 8.5-5.3 11 11 0 0 1 2.8-.3c.9 0 1.6.2 2.3.7.6.4 1 1 1 1.4l-.1.3h-.3c-.4-.7-1.2-1-2.5-1-1.5 0-3 .5-4.3 1.2-1.6.9-3 1.9-4.5 3.1a19.9 19.9 0 0 0-3 3.8c-1 1.4-1.4 2.4-1.4 3 0 1.3.3 2 1 2 .8 0 1.8-.7 3.3-1.8l4.9-4.4c3-3.4 4.7-5 5-5 .4 0 .9 0 1.4.3.6.3.8.5.6.9a16 16 0 0 0-3.1 8.4c0 .5.1 1 .4 1.2.5.5 1.2.6 2 .1 1-.5 2.2-1.4 3.7-2.8a25 25 0 0 0 3.8-4.1c.1-.2.3-.3.4-.2l.3.3a29.2 29.2 0 0 1-6 6.8 7.5 7.5 0 0 1-4.4 1.7c-1.3 0-2.2-.7-2.6-2l-.2-1.3c0-1.5.3-3.1 1-4.8l-1.9 2a30.3 30.3 0 0 1-3.8 3.7c-1.5 1.2-2.8 1.8-4 1.8Zm19.2 18.6-1-.1c-1.8-.5-2.6-1.4-2.6-2.7 0-1.4.9-3.1 2.6-5.1 1.8-2.1 5.5-5 11.2-8.8 3.1-6.4 5.1-11 6-13.5l-2.4 3-3.1 4c-1 1.2-2 2.2-3.3 3.1a6 6 0 0 1-3.5 1.5c-1 0-2-.3-2.5-.8-.6-.5-1-1-1-1.5-.3-1.8 0-3.5 1-5 .9-2.1 2.3-4 4-5.4.6-.6 1.2-.9 1.7-.9s1 .2 1.3.5c.5.4.6.8.4 1.2-1.3.7-2.7 2.1-4.4 4.3-.9 1.2-1.5 2.7-1.8 4.3v.9c0 .3.1.6.4.8.3.2.6.4.9.4 1 0 2.1-.6 3.3-1.7a49.7 49.7 0 0 0 6.8-8l2.6-3.3c.4-.5.9-.8 1.3-.8.5 0 1 .1 1.7.5.5.3.8.5.7.7a288.2 288.2 0 0 0-6.1 13.5c.8-.4 2.1-1.5 4-3a36 36 0 0 0 5-5c.3-.5.5-.5.6-.2v.4l-.2.6a41.7 41.7 0 0 1-10.4 9.4c-2.9 6-4.8 9.6-5.8 11.1-2.5 3.7-5 5.6-7.4 5.6Zm9.2-14.8c-4 3-6.9 5.5-8.6 7.2-1.7 1.8-2.6 3.3-2.6 4.5 0 1.3.4 2 1.3 2 .7 0 1.4-.4 2.3-1.1a13 13 0 0 0 2.5-2.8 27 27 0 0 0 3.6-6.5 200 200 0 0 1 1.5-3.2Zm21.7 12-.2.3-1 .6c-.7.3-1.2.5-1.7.5s-.7-.1-.7-.4v-.4c.7-1 3.8-8.8 9.4-23.2l-2.3.2a2 2 0 0 1-1.2-.3 1 1 0 0 1-.4-.9c0-.3.3-.6 1-1l1.8-.4c.4 0 .8.2 1 .4l.6.4h.1l1.5-3.7a86.1 86.1 0 0 1 6.2-13c2.2-3.4 4.5-5.1 6.7-5.1l1.2.1 1 .4c1 .6 1.5 1.3 1.5 2.3 0 1-.3 2-.8 3.2a69 69 0 0 1-13.6 15.4l5.3-.3c.8 0 1.2.1 1.2.3 0 .1-.3.3-1 .5-2.5.5-5 1-7.7 1.3a114.6 114.6 0 0 0-7.1 21l-.3.8-.5 1Zm22.3-40.7c.6-1 .8-1.9.8-2.8 0-.8-.3-1.3-1-1.3-1.2 0-3 1.7-5.4 5a65.8 65.8 0 0 0-7.8 14.6l-.4.8a64.5 64.5 0 0 0 13.8-16.3Zm-3 24.9a4 4 0 0 1-1.7-.5c-.6-.3-1.2-.8-1.6-1.4-.4-.5-.6-1.2-.6-1.9 0-.6.1-1.3.4-1.9.8-1.6 2-3 3.3-4a29.5 29.5 0 0 1 8.5-5.3l2.7-.3c1 0 1.7.2 2.3.7.6.4 1 1 1 1.4v.3h-.3c-.4-.7-1.3-1-2.5-1-1.5 0-3 .5-4.3 1.2-1.6.9-3.2 2-4.5 3.1a19.9 19.9 0 0 0-3.1 3.8c-1 1.4-1.4 2.4-1.4 3 0 1.3.4 2 1.1 2 .7 0 1.8-.7 3.2-1.8l5-4.4c3-3.4 4.7-5 4.9-5 .4 0 .9 0 1.5.3.5.3.7.5.5.9a16 16 0 0 0-3 8.4c0 .5 0 1 .3 1.2.5.5 1.2.6 2.1.1a25 25 0 0 0 7.4-7c.1-.1.3-.2.5 0 .1 0 .2 0 .2.2a29.2 29.2 0 0 1-6 6.8 7.5 7.5 0 0 1-4.4 1.7c-1.3 0-2.1-.7-2.6-2l-.1-1.3c0-1.5.3-3.1 1-4.8-.2 0-.8.7-2 2a30.3 30.3 0 0 1-3.8 3.7c-1.4 1.2-2.8 1.8-4 1.8Zm21 0c-.4.4-.5.8-.2 1.1.2.3.5.5.8.5.4 0 .7 0 1-.2 1.5-.4 2.9-1.3 4.2-2.6 1.4-1.3 2-2.6 2-4 0-.7-.8-1.5-2.4-2.3a34 34 0 0 1-1.3-.7c-1-.7-1.5-1.3-1.7-1.9l-2.3 3.5c-.2.3-.4.3-.6.2-.3-.2-.3-.4-.1-.6 1.1-1.5 2-3 2.7-4.8.3-1.8 1.6-3.5 4-5 2.5-1.4 4.7-2.2 6.8-2.2 1.2 0 2.1.2 2.7.7.5.5.7.9.7 1.3 0 .5 0 1-.3 1.5a4 4 0 0 1-1.6 1.7l-.5-.1c0-.2.1-.5.4-.9.4-.3.6-.8.7-1.4.1-.6-.1-1-.8-1.1h-.3c-1.3 0-3 .5-4.9 1.4-2 1-3.5 2.3-4.6 3.8-.4.5-.6 1.1-.7 1.8 0 .5.4 1 1.2 1.6l1.8 1c.8.3 1.3.7 1.7.9l1.2 1c.5.4.7.8.7 1.1.2 1-.3 2.1-1.4 3.4a13.1 13.1 0 0 1-9.2 3.9c-.7 0-1.2-.3-1.5-.8a1 1 0 0 1-.1-.6c0-.3.3-.8.8-1.4.5-.5 1.3-1 2.4-1.5h.3v.3l-.5.4c-.4.2-.8.5-1 1Zm31.8-30c.6-.3 1-.4 1.5-.4 1.5 0 2.5.4 3 1.2l.3 1c0 2.3-1.9 5.2-5.7 8.7-3 2.7-6.2 5.2-9.4 7.7l-2.9 7.8 4.6-5.2c3.7-3.8 6.3-5.8 7.8-5.8.7 0 1.1.4 1.2 1.2 0 .7-.1 1.5-.5 2.2l-1.1 2a14 14 0 0 0-2.4 7c0 .6.2 1.1.4 1.4.5.5 1.2.6 2 .1a27.2 27.2 0 0 0 7.5-7c.2-.1.3-.2.5 0l.2.2v.3c-.6.9-1.5 2-2.8 3.4l-3.2 3a7.4 7.4 0 0 1-4.4 1.8c-1.3 0-2.1-.7-2.6-2l-.1-1v-1.4c.2-1.4 1.1-3.6 2.7-6.6.4-.6.5-1 .5-1.3 0-.2-.1-.3-.4-.3-.5 0-1.5.6-3 2a47.1 47.1 0 0 0-4.7 5.5c-2 2.7-3.2 4.1-3.5 4.3l-2.2 1c-.3 0-.4-.1-.5-.2v-.3l.9-2.2a301 301 0 0 1 3.2-9 80.8 80.8 0 0 1-4.1 4.9c-.3.2-.4.2-.4-.2s.1-.8.4-1.2a98 98 0 0 1 4-5c-.3-.1-.5-.3-.5-.6s0-.6.3-.7c.2 0 .6 0 1 .2l1-1.6c4-8.6 7.8-13.6 11.4-15Zm2.8 3.7c.4-.8.6-1.5.6-2 0-.6-.2-.9-.7-.9-.5 0-1.1.3-2 1-3.6 2.8-7 7.5-10 14.1a44 44 0 0 0 12-12.2Zm7.7 11.8c.8 0 1.3.2 1.5.8l-.1.8-.5 1.1-.5 1c-2 3.8-3 6.2-3 7.3v1.1c0 .5 0 1 .3 1.2.5.5 1.2.6 2 .1a27 27 0 0 0 7.5-7c.1-.1.3-.2.4 0 .2 0 .3.1.3.2v.3c-.6.9-1.5 2-2.8 3.4-2.2 2.4-4 3.8-5.4 4.3-.7.3-1.4.4-2.1.5-1.4 0-2.3-.7-2.7-2l-.1-.8c0-1.2.5-3 1.6-5.3-.1.3-.8 1.2-2 2.5-.3.3-.5.3-.6 0l-.1-.3a75.8 75.8 0 0 0 4-5.6c0-.2 0-.4.2-.7.6-1.9 1.2-2.8 1.7-3h.4Zm4-6.7-.4 1.6c0 .3-.3.8-.7 1.4-.4.7-.8 1-1 1-1.4 0-2.2-.3-2.2-1 0-.2.8-.8 2.2-1.9l.9-.6c.5-.5.8-.7 1-.7.1 0 .2 0 .2.2Zm13 15c.6-1.2.9-2.1.9-2.8 0-.7 0-1.2-.3-1.6-.1-.4 0-.7.3-1 .3-.2.6-.3 1-.3.7.2 1 1 1 2.3 0 1.3-.7 3.1-2.3 5.3 0 .9.5 1.3 1.4 1.3.9 0 2.3-1 4.1-2.9l1.7-2c.2-.2.4-.4.5-.3l.3.3c0 .3-.6 1.2-1.8 2.6-2 2.3-3.6 3.5-5.1 3.5-1 0-1.7-.4-2-1.3l-2 2a6.6 6.6 0 0 1-4.4 1.7c-1 0-1.7-.2-2.3-.7-1.2-.7-1.8-2-1.8-3.8 0-2 .7-4 2-6 .8-1.2 1.7-2.3 2.8-3.2 1.6-1.4 3.2-2.2 4.7-2.2l1 .2c1 .3 1.5 1 1.5 2 0 .7-.2 1-.6 1-.1 0-.2-.2-.2-.7 0-.6-.4-.9-1-.9-1.2 0-2.7 1-4.6 3.2-1.8 2.2-3 4.3-3.3 6.5v1.3c0 .4 0 1 .4 1.5.3.6.8 1 1.6 1 1-.1 2-.5 2.8-1.2a12 12 0 0 0 2.6-2.8l-.2-.3c-.1-.6 0-1 .2-1.3.3-.4.6-.5 1-.3Zm21.2-8.7c.8 0 1.2.4 1.2 1.2 0 .9-.4 2-1.2 3.4l-1.7 3.6c-.5 1.1-.9 2.4-1 3.7 0 .9.2 1.5.5 1.8.5.5 1.2.6 2 0a22 22 0 0 0 3.7-2.7c1.4-1.3 2.6-2.6 3.7-4.1.2-.2.3-.3.5-.2l.3.3-.1.3a24.7 24.7 0 0 1-6.5 6.9c-1 .7-2.3 1.2-3.6 1.2-1.1 0-2-.3-2.4-.8-.5-.5-.7-1-.7-1.8 0-1.6.3-3.1 1-4.5.6-1.5 1-2.6 1.6-3.4l.6-1.6c0-.3-.1-.4-.4-.4-.5 0-1.6.7-3 2a47.1 47.1 0 0 0-4.7 5.5c-2 2.7-3.2 4.1-3.4 4.3a8 8 0 0 1-2.3 1c-.3 0-.4-.1-.4-.2v-.5l1-2.7 3.2-9 .3-1c0-.5.3-1 .6-1.4a1 1 0 0 1 .7-.4h1.2c.4.2.7.4.7.7a211.3 211.3 0 0 0-3.7 9.7 88.7 88.7 0 0 1 9.2-9.5c1.3-1 2.3-1.4 3.1-1.4Zm28.1 8.8c.6-1.3 1-2.2 1-2.9 0-.7-.2-1.2-.3-1.6-.2-.4-.1-.7.2-1 .3-.2.6-.3 1-.3.7.2 1 1 1 2.3 0 1.3-.7 3.1-2.3 5.3 0 .9.5 1.3 1.4 1.3 1 0 2.3-1 4.2-2.9l1.6-2c.2-.2.4-.4.6-.3l.2.3c0 .3-.6 1.2-1.8 2.6-1.9 2.3-3.6 3.5-5 3.5a2.1 2.1 0 0 1-2.1-1.3l-2 2a6.6 6.6 0 0 1-4.4 1.7c-.9 0-1.7-.2-2.3-.7-1.1-.7-1.7-2-1.7-3.8 0-2 .6-4 2-6 .7-1.2 1.7-2.3 2.7-3.2 1.7-1.4 3.2-2.2 4.7-2.2l1 .2c1 .3 1.6 1 1.6 2 0 .7-.2 1-.6 1-.2 0-.3-.2-.3-.7 0-.6-.3-.9-1-.9-1.2 0-2.7 1-4.5 3.2-1.9 2.2-3 4.3-3.4 6.5v1.3c0 .4 0 1 .4 1.5.3.6.9 1 1.7 1 1-.1 2-.5 2.7-1.2 1-.7 1.8-1.7 2.6-2.8l-.2-.3c0-.6 0-1 .3-1.3.2-.4.6-.5 1-.3Zm31-1.5c-.5.9-1.4 2-2.8 3.4-1 1.2-2.2 2.3-3.5 3.3a7.3 7.3 0 0 1-4.4 1.5c-.3 0-.7-.2-1.2-.5-.5-.2-.8-.7-1-1.2l-.2-1.6c0-1.7.3-3.4 1-5.2l-1.4 2.2c-.8 1.4-1.8 2.7-3 3.9-1.2 1.2-2.4 1.8-3.6 1.8-.7 0-1.4-.2-2-.5-1.3-.6-2-1.7-2-3.3 0-2 .7-4 2-6.1 1.4-2.1 2.3-3.3 2.6-3.4l1.5-.2 1.4.3c.4.2.4.5-.2 1-2.2 1.8-4 4.3-5 7-.3 1-.5 1.8-.5 2.5s.1 1.2.5 1.4l1 .3c.8 0 2-.6 3.3-1.7a35.2 35.2 0 0 0 7.6-10l1.5-2.6c.5 0 1.1.1 1.9.4.7.2 1 .6.7 1l-3.4 6a13.7 13.7 0 0 0-1.4 5.5c0 .5.1 1 .4 1.2.5.5 1.2.6 2.1 0a24.6 24.6 0 0 0 7.4-7h.5l.3.3-.1.3Zm6-7 .8-.1 4.7-.4c.5 0 .8.1.8.3 0 .2-.4.4-1.2.6l-5.8.9-.6 1-.8 1.5c-1.9 3.8-2.9 6.2-3 7.3v1.1c0 .5 0 1 .3 1.2.5.5 1.2.6 2 .1a27.4 27.4 0 0 0 7.5-7h.5c.5.2-.3 1.5-2.6 4-2.1 2.3-4 3.7-5.4 4.2-.7.3-1.4.4-2 .5-1.4 0-2.3-.7-2.8-2a3 3 0 0 1 0-.8c0-1.2.5-3 1.5-5.3-.1.3-.8 1.2-2 2.5-.2.3-.5.3-.6 0v-.3l.1-.4a76 76 0 0 0 5-7.3 5 5 0 0 1-1 0c-.4 0-.6 0-.8-.3-.2-.2-.2-.4 0-.7.2-.6 1-.9 2.6-1h.2l2.5-4.7.9-1.5.3-.5.2-.4.2-.2c.1-.2.5-.3 1.2-.3.6 0 1 .2 1.3.6l.2.7c0 .3-.1.6-.4 1l-.7.9c-.3 0-.5.3-.6.5l-2.4 4.3Zm15.7-.7c1.8 0 2.7 1 2.7 2.7 0 .9-.2 1.6-.7 2.2-1 1.4-2.5 2.5-4.1 3.2a14 14 0 0 1-4.8 1.6c-.5 0-.7-.1-.8-.4 0-.2 0-.3.2-.3a8 8 0 0 0 3.2-1.1 16 16 0 0 0 5-3.8 3 3 0 0 0 .6-1.7c0-.6-.2-.8-.8-.8-.6 0-1.2.2-1.7.5-2 1-3.6 2.3-5 3.9a14 14 0 0 0-3.5 5.3l-.2 1.6c0 .5.2 1 .6 1.5.5.5 1.2.7 2 .7 1 0 2.2-.3 3.5-.8 3.6-1.4 6.7-3.8 8.8-7 .2-.3.4-.3.6-.1l.2.2-.2.4a18 18 0 0 1-3.8 4.4c-3 2.6-6 3.9-8.7 3.9-2.5 0-4.2-.8-5.1-2.2-.4-.6-.6-1.3-.6-2 0-.9.2-1.8.7-3 .8-1.9 2.6-3.8 5.4-5.8 2.7-2 4.9-3 6.5-3Zm11.9.6h.6l4.7-.4c.6 0 .9.1.9.3 0 .2-.4.4-1.2.6l-5.8.9-.6 1-.8 1.5c-2 3.8-3 6.2-3 7.3v1.1c0 .5 0 1 .3 1.2.5.5 1.2.6 2 .1a27 27 0 0 0 7.5-7h.5c.5.2-.4 1.5-2.6 4-2.2 2.3-4 3.7-5.4 4.2-.7.3-1.4.4-2.1.5a2.6 2.6 0 0 1-2.7-2 3 3 0 0 1-.1-.8c0-1.2.5-3 1.6-5.3a16 16 0 0 1-2 2.5c-.3.3-.5.3-.7 0v-.3a76.3 76.3 0 0 0 5.2-7.7 5 5 0 0 1-1 0c-.4 0-.7 0-.8-.3-.2-.2-.2-.4 0-.7.1-.6 1-.9 2.6-1h.2l2.5-4.7.5-.9.3-.6.3-.5.3-.4.2-.2c.1-.2.5-.3 1.1-.3.7 0 1.1.2 1.4.6l.1.7c0 .3 0 .6-.3 1l-.8.9-.5.5-2.4 4.3ZM38.4 8.8a4 4 0 0 1 2 1c.5.4.8 1.1.8 2 0 .8-.3 1.6-.8 2.2-.5.6-1.2.8-2.1.7a108.2 108.2 0 0 0-26.1-.8c.5 6 .8 12.8.8 20.4a112.3 112.3 0 0 1 20.7.4c.9 0 1.6.4 2 1 .4.6.6 1.2.6 2a3 3 0 0 1-.7 2c-.4.6-1.1.8-2.2.7a187.4 187.4 0 0 0-20.4-.1c0 9.4-.3 17.5-.8 24-.1.8-.5 1.5-1 2-.7.5-1.5.7-2.3.7-1 0-1.8-.2-2.4-.8a2.2 2.2 0 0 1-.9-2c.6-6.3 1-14.1 1-23.3l-3.8.5c-.8.1-1.4-.1-1.9-.7s-.7-1.4-.7-2.2c0-1.8 1-2.8 2.8-3l3.6-.5c0-8-.4-15-1-20.7H3.1c-1.2.1-2-.1-2.5-.6-.4-.5-.7-1.3-.7-2.3 0-.9.2-1.6.7-2 .4-.6 1.1-.9 2.2-1h2V7.2c0-1 .2-1.7.8-2.3.7-.6 1.6-.9 2.5-.9 2 0 3 1.1 3.3 3.3V8A211.5 211.5 0 0 1 32 8c3 .2 5 .5 6.5.8Zm51 53.2c.8 0 1.4.3 1.8.6.3.4.5 1 .5 2a3 3 0 0 1-.6 2c-.4.5-1 .7-1.7.7-2.4 0-4-.4-5.2-1-1-.8-2-2.2-2.8-4.3-2.6 4.2-7.1 6.2-13.6 6.2-4.6 0-8.3-1-11.2-3a17 17 0 0 1-6-7.8 27.4 27.4 0 0 1 .4-20.7 18.4 18.4 0 0 1 17.4-11.1c2.9 0 5.4.5 7.5 1.7 2 1 3.7 2.7 4.9 4.7l.3-2.8c.1-2 1.1-3.1 3-3.1 1 0 2 .2 2.5.8.6.5.8 1.2.7 2l-.2 2A76.5 76.5 0 0 0 86 47v5.9c0 2.4 0 4.2.2 5.3 0 1 .3 2 .9 2.7.4.7 1.2 1 2.3 1Zm-9.9-9.2V42.5c0-2.8-.5-5-1.7-6.8-1-1.6-2.6-2.9-4.3-3.7-1.6-.7-3.2-1-4.9-1-3 0-5.5.8-7.5 2.5a15 15 0 0 0-4.4 6.4 22 22 0 0 0-1.4 7.5c0 4 1 7.5 2.9 10.7 2 3.1 5.2 4.7 9.7 4.7a13 13 0 0 0 8.2-2.6 9.1 9.1 0 0 0 3.4-7.4Zm38 15.1c-3.8 0-7-1-9.8-2.8a19.9 19.9 0 0 1-6.4-7.3l-.5-1.6c0-.8.3-1.5 1-2.1.7-.6 1.5-.9 2.4-.9.5 0 1 .2 1.3.5l1.3 1.6a22 22 0 0 0 4.5 5.2c1.6 1.2 3.7 1.9 6.3 1.9a10 10 0 0 0 6-1.8 5.4 5.4 0 0 0 2.5-4.5c0-1.3-.5-2.4-1.3-3.3-1-1-2-1.7-3.3-2.2l-5.4-2.2c-3-1-5.5-2-7.3-2.9-1.8-.9-3.5-2.2-4.7-3.7-1.4-1.8-2-4-2-6.2s.6-4.3 1.8-6.2c1.3-2 3.1-3.5 5.3-4.5 2.4-1.2 5.1-1.8 7.8-1.7 3 0 5.5.6 7.8 1.7 2.1 1 4 2.6 5.3 4.5a11 11 0 0 1 1.9 6.2c0 1.1-.3 2-.7 2.5-.4.5-1.2.7-2.3.7-1 0-1.8-.2-2.2-.6-.4-.5-.6-1-.6-1.7-.3-2.6-1.2-4.6-2.8-5.9a10.2 10.2 0 0 0-6.4-1.9c-3 0-5.2.7-6.5 2.2a7 7 0 0 0-2 4.6 5 5 0 0 0 2.6 4.5 42 42 0 0 0 7.8 3.4 67 67 0 0 1 7.2 3c1.8 1 3.3 2.2 4.6 3.7 1.3 1.7 2 3.8 2 6 0 3.7-1.5 6.6-4.4 8.7a17.8 17.8 0 0 1-10.7 3.1Zm63-32.7c.9 3.2 1.4 7.1 1.7 11.8.3 4.7.4 10.7.4 18 0 .7-.3 1.3-.9 1.8-.6.5-1.5.7-2.3.7-1 0-1.8-.3-2.3-.7-.7-.5-1-1.2-1-2.2 0-14.9-.6-24.4-1.8-28.4a10 10 0 0 0-3-5c-1.2-1.1-3-1.6-5.1-1.6-3 0-5.4.8-7.5 2.6a16 16 0 0 0-4.6 6.6 23 23 0 0 0-1.5 8.3v18a2 2 0 0 1-1 1.6c-.6.5-1.4.7-2.2.7-1 0-1.8-.2-2.4-.7-.6-.4-.9-1-.9-1.8A786.6 786.6 0 0 1 148 3.7c.2-2 1.3-3 3.3-3 .9 0 1.6.3 2.2.7.6.4.9 1 .8 1.7l-.6 12-.8 16c1.4-2.2 3.3-4 5.6-5.3 2.3-1.4 5.2-2 8.7-2 3.7 0 6.6.8 8.8 2.7 2 1.9 3.7 4.8 4.7 8.7Zm19.8-15.8A5.1 5.1 0 0 1 195 14a5.1 5.1 0 0 1 5.5-5.3 5 5 0 0 1 5.2 5.2c0 1.5-.5 2.8-1.5 3.8a5.4 5.4 0 0 1-4 1.6ZM199 67c-.9 0-1.7-.2-2.4-.8-.6-.5-.9-1.2-.9-2l.9-36.2c0-1 .3-1.7.8-2.2.7-.5 1.4-.7 2.5-.7 1 0 1.8.2 2.4.7.6.5.9 1.3.9 2.3l-.9 36c0 1-.4 1.7-1 2.1-.5.5-1.3.8-2.3.8Zm38.4.6c-6.4 0-11.8-1.7-16-5.1-4.2-3.4-6.3-8.8-6.3-16 0-4.5.8-8.5 2.6-12 1.6-3.3 4.3-6.1 7.5-8 3.3-2 7.2-2.9 11.7-2.9 4.3 0 8.1 1 11.5 2.7 3.4 1.8 6.3 4.5 8.1 7.8 2 3.4 3 7.5 3 12.3 0 7-2 12.2-6.1 15.8-4 3.6-9.4 5.4-16 5.4Zm-.2-5.4a16 16 0 0 0 11.2-4c3-2.7 4.5-6.7 4.5-11.9 0-3.4-.7-6.4-2-9a14.7 14.7 0 0 0-5.6-6.2A15.8 15.8 0 0 0 237 29c-4.6 0-8.4 1.6-11.2 4.7a18.3 18.3 0 0 0-4.2 12.6c0 5.5 1.5 9.5 4.5 12 3 2.6 6.7 4 11 4Zm52.3-38c9.6 0 14.3 6.8 14.3 20.3v20c0 2-1 2.9-3.1 2.9-2.3 0-3.4-1-3.4-2.9v-20c0-5-.6-8.7-1.7-11-1.1-2.4-3.2-3.6-6.1-3.6a9.5 9.5 0 0 0-7.7 3.6c-2 2.4-3.4 5.5-4.2 9.3a52 52 0 0 0-.7 9.6V65c0 .8-.2 1.4-.8 1.8-.7.5-1.5.7-2.3.7-1 0-1.9-.2-2.4-.7a2.2 2.2 0 0 1-.9-1.8 595 595 0 0 0-.6-29.6c0-1.1-.1-2.2-.5-3.3-.3-.8-.9-2-1.8-3.5-.2-.3-.3-.7-.3-1.2 0-.6.4-1.3 1.1-1.9.7-.5 1.4-.8 2.3-.9.7 0 1.5.6 2.3 1.7.6.9 1.2 2 1.7 3.2.6 1.3.8 2.5.8 3.6v1a16 16 0 0 1 5-7c2.2-2 5.2-2.9 9-2.9Zm61.4 35.6c1.2 0 2.1.1 2.7.6.6.5.9 1.3.9 2.4 0 1-.2 1.7-.7 2-.4.5-1 .8-1.9 1-2.2.4-6.5.7-12.8.7h-2.7c-3.8 0-7.2 0-10.2-.2-3-.1-6.3-.4-10-.9-1.6-.1-2.3-1-2.3-2.8 0-.8.2-1.5.6-2 .4-.7.9-1 1.5-1l1.4.1C318.4 53 319 46 319 39h-1c-1 0-1.8-.3-2.3-.8-.5-.5-.7-1.2-.7-2.2 0-2 .9-3 2.6-3h1.4v-9.4l-.1-9.2c-1.6-.2-2.4-1.2-2.4-2.7 0-1.2.3-2 .9-2.3a6 6 0 0 1 2.5-.7c3.2-.4 8-.6 14.6-.6 8.2 0 14.1.3 17.7.8 1 .2 1.7.4 2.2.8.5.4.7 1 .7 2 0 .9-.2 1.7-.8 2.3a2 2 0 0 1-2 .7c-9-.8-18-.9-27-.3l.3 18.7 5.7.1a506 506 0 0 0 14.4.4c1.6 0 2.4.9 2.4 2.8a4 4 0 0 1-.6 2.3c-.4.5-1 .8-1.8.8h-4.5a159.8 159.8 0 0 0-15.7-.4c0 7-.6 14-1.4 21a170.6 170.6 0 0 0 27-.3ZM406 24c5 0 8.5 1.7 10.6 5 2 3.4 3 8 3 14v21.8c0 .8-.3 1.4-.9 2-.5.4-1.3.7-2.2.7-1 0-1.8-.3-2.4-.8a2.8 2.8 0 0 1-.8-2.1v-21a27 27 0 0 0-1.6-11c-1.1-2.3-3.2-3.5-6.2-3.5-2.8 0-5 1.6-6.3 4.8a29.6 29.6 0 0 0-2.1 11.2v19.5c0 1.8-1 2.7-3.1 2.7-2.3 0-3.4-1-3.4-2.9l.1-15.4v-3.9c0-3.7-.8-7.4-2.4-10.8-1.6-3.2-3.7-4.8-6.4-4.8-2.1 0-3.9 1-5.3 3-1.3 2.2-2.5 5.5-3.4 10-.5 2.7-.8 6.6-.8 11.8v10.5a2 2 0 0 1-.9 1.9c-.6.4-1.4.6-2.2.6-.8 0-1.6-.2-2.3-.7a2.2 2.2 0 0 1-.8-1.8l-.1-27.5v-3.2c0-1-.2-2.1-.5-3a6 6 0 0 0-1.2-1.8l-.6-.5a1.1 1.1 0 0 1-.4-.8c0-.9.3-1.6 1-2.2a3 3 0 0 1 2-.8c.5 0 1 .2 1.5.6l1.4 1.5c.6.9 1 1.7 1.3 2.6.3.8.4 1.8.4 3v1.5c1-3.3 2.4-5.7 4.3-7.4 2-1.7 4.4-2.5 7-2.5 5.8 0 9.6 3.3 11.4 9.9a14 14 0 0 1 4.4-7.6 12 12 0 0 1 7.8-2.6Zm47.7-.1c3.8 0 7.3.8 10.4 2.4 3.2 1.6 5.8 4.2 7.5 7.3 2 3.3 2.9 7.3 2.9 12 0 4.6-1 8.6-2.7 11.9a17.9 17.9 0 0 1-7.5 7.5 27.3 27.3 0 0 1-26-1.8l-.2 8.6-.4 12a2.7 2.7 0 0 1-1 2c-.6.5-1.5.8-2.3.7-1 0-1.8-.2-2.3-.8a3 3 0 0 1-.8-2.2c0-4.5.2-8.1.3-10.7l.3-9.2.2-26a14 14 0 0 0-.6-4.3c-.4-1.2-1-2.3-1.8-3.3l-.5-.5c-.3-.2-.4-.6-.4-1.1 0-.8.4-1.5 1.2-2.1a4 4 0 0 1 2.4-1c.4 0 .7.1 1 .3l.6.4a23.4 23.4 0 0 1 3.4 5.5 18 18 0 0 1 6.2-5.3c2.8-1.6 6.1-2.3 10.1-2.3Zm-.3 38.2c4.3 0 7.8-1.4 10.5-4.3s4-7 4-12.3c0-5.5-1.4-9.5-4.2-12.1-2.7-2.6-6.4-4-10.3-4a16.4 16.4 0 0 0-13 6.4c-1.1 1.8-1.7 3.1-1.7 4.1l-.1 16.1c.3.7 1.2 1.6 2.7 2.6a22.2 22.2 0 0 0 12 3.5Zm50.5 5.5c-6.4 0-11.8-1.7-16-5.1-4.2-3.4-6.3-8.8-6.3-16 0-4.5.9-8.5 2.6-12 1.6-3.3 4.3-6.1 7.5-8 3.3-2 7.2-2.9 11.7-2.9 4.3 0 8.1 1 11.6 2.7 3.4 1.8 6 4.4 8 7.8 2 3.4 3 7.5 3 12.3 0 7-2 12.2-6.1 15.8-4 3.6-9.4 5.4-16 5.4Zm-.2-5.4a16 16 0 0 0 11.3-4c3-2.7 4.4-6.7 4.4-11.9 0-3.4-.6-6.4-2-9a14.7 14.7 0 0 0-5.6-6.2 15.8 15.8 0 0 0-8.3-2.1c-4.6 0-8.3 1.6-11.2 4.7a18.3 18.3 0 0 0-4.2 12.6c0 5.5 1.5 9.5 4.5 12 3 2.6 6.7 4 11 4Zm51.2-38.4c3.7 0 6.5 1.1 8.5 3.4s3.2 5.3 3.1 8.4c0 3.1-1 5.6-2.8 7.3a10 10 0 0 1-7.2 2.7c-1.2 0-2-.1-2.4-.5-.5-.3-.8-1-.8-1.8 0-1.5.7-2.3 2.1-2.3 3.7-.4 5.6-2.2 5.6-5.5 0-1.7-.5-3.2-1.5-4.5-1-1.2-2.5-1.9-4.6-1.9-2.3 0-4.3 1-6 3a21 21 0 0 0-4 7.1c-.8 2.7-1.4 5.6-1.6 8.5-.4 5.2-.5 10.1-.5 14.8 0 2.3-.2 3.8-.7 4.6-.4.7-1.2 1-2.5 1-1.2 0-2-.2-2.5-.8-.5-.6-.8-1.7-.8-3.1V47.9c0-3.7-.4-8.6-1-14.8-.3-3.5-.5-6-.5-7.6 0-1 .2-1.6.8-2.1.6-.5 1.5-.8 2.3-.7 1.8 0 2.7.8 2.8 2.5.4 3.5.6 7 .6 10.5 1-3.8 2.7-6.7 5-8.8 2.4-2 5.5-3.2 8.6-3.1Zm31-4.4a5.2 5.2 0 0 1-5.3-5.3 5.1 5.1 0 0 1 5.5-5.3 5 5 0 0 1 5.2 5.2c0 1.5-.5 2.8-1.5 3.8a5.4 5.4 0 0 1-4 1.6ZM584.5 67c-.9 0-1.7-.3-2.4-.8-.6-.5-1-1.2-1-2l1-36.2c0-1 .2-1.7.8-2.2.6-.5 1.4-.7 2.5-.7 1 0 1.8.2 2.4.7.6.5.9 1.3.9 2.3l-.9 36c0 1-.4 1.7-1 2.1-.5.5-1.3.8-2.3.8Zm52-8.9A8.6 8.6 0 0 0 638 63c.4.7.6 1.1.6 1.4 0 .6-.3 1.2-1 1.7-.6.6-1.2.9-1.7.9-1.2 0-2.2-.7-3-2.1a7.8 7.8 0 0 1-1.4-4.1v-1.2c-1 2.5-3 4.6-5.5 6a17 17 0 0 1-8.4 2c-4.8 0-8.4-1.7-10.8-5-2.4-3.2-3.6-8-3.6-14.3v-21c0-.8.3-1.3 1-1.8.6-.5 1.4-.7 2.2-.7 1 0 1.7.2 2.4.7.6.5.9 1 .9 1.8v21.2c0 4.7.7 8.2 2 10.4 1.4 2.2 3.6 3.3 6.6 3.3 7.6 0 11.4-7 11.4-20.8V27.1c0-.9.3-1.6.9-2.1.6-.6 1.5-.8 2.3-.8 1 0 1.8.3 2.5.8.6.5.9 1.2.9 2.1l.3 31Zm55.1-34c5 0 8.6 1.6 10.6 5 2 3.3 3.1 8 3.1 14v21.7c0 .8-.3 1.4-.9 2-.5.4-1.3.7-2.2.7-1 0-1.8-.3-2.4-.8a2.8 2.8 0 0 1-.8-2.1v-21c0-5.1-.5-8.8-1.6-11-1.1-2.3-3.2-3.5-6.2-3.5-2.8 0-5 1.6-6.3 4.8-1.4 3.2-2 7-2.1 11.2v19.5c0 1.8-1 2.7-3.2 2.7s-3.3-1-3.3-2.9l.1-15.4v-3.9c0-3.7-.8-7.4-2.4-10.8-1.6-3.2-3.7-4.8-6.4-4.8-2.1 0-3.9 1-5.3 3-1.4 2.2-2.5 5.5-3.4 10-.5 2.7-.8 6.6-.8 11.8v10.5a2 2 0 0 1-1 1.9 4 4 0 0 1-4.4-.1 2.2 2.2 0 0 1-.8-1.8l-.1-27.5v-3.2c0-1-.2-2.1-.6-3-.3-1-1-1.7-1.7-2.3l-.3-.4V28c0-.9.2-1.6.8-2.2a3 3 0 0 1 2.2-.8c.4 0 .8.2 1.4.6l1.4 1.5c.6.9 1 1.7 1.3 2.6.3.8.4 1.8.4 3v1.5c1-3.3 2.4-5.7 4.3-7.4 2-1.7 4.4-2.5 6.9-2.5 5.8 0 9.7 3.3 11.5 9.9a14 14 0 0 1 4.4-7.6 12 12 0 0 1 7.8-2.6ZM141.1 127.3H0v7.8h141v-7.8Zm564.2 0h-141v7.8h141v-7.8Z"/>
</svg>